<svg width="623" height="536" viewBox="0 0 623 536" fill="none" xmlns="http://www.w3.org/2000/svg">
<path d="M445.362 140.693C434.174 149.32 420.746 152.797 407.817 154.473C394.115 156.225 380.498 156.184 367.262 154.351C365.436 154.105 363.611 153.824 361.806 153.509L298.004 116.673C297.911 115.881 297.847 115.071 297.809 114.252C297.391 105.724 299.787 96.6155 305.044 89.3668C311.937 79.8653 323.848 74.3464 333.584 77.0935C343.316 79.8495 349.561 91.3847 346.519 102.601C358.773 84.6649 371.696 66.0641 389.421 54.9912C405.467 44.969 424.783 42.3171 440.298 48.8045C449.394 52.6717 456.903 59.4624 461.935 68.3718C462.396 69.1918 462.839 70.025 463.258 70.867C466.079 76.5583 467.785 82.9376 468.283 89.6617C469.565 108.245 460.541 128.97 445.362 140.693Z" fill="#FA5252" fill-opacity="0.94"/>
<path d="M466.355 65.5961C466.242 65.8336 466.077 66.0434 465.877 66.2051C465.676 66.3667 465.448 66.4746 465.213 66.5181C420.377 77.4445 377.136 99.5621 339.092 131.028C338.541 131.471 337.992 131.928 337.451 132.389L334.514 130.693C335.056 130.233 335.597 129.772 336.141 129.324C343.355 123.286 350.775 117.575 358.399 112.189C374.878 100.571 392.148 90.5732 409.966 82.3353C427.791 74.0797 446.089 67.6525 464.592 63.1469C464.738 63.1112 464.886 63.0957 465.032 63.1009C465.3 63.1158 465.552 63.1969 465.772 63.3381C465.991 63.4794 466.17 63.6772 466.298 63.9169C466.425 64.1566 466.496 64.432 466.506 64.7227C466.516 65.0134 466.464 65.3119 466.355 65.5961V65.5961Z" fill="white"/>
<path d="M398.964 158.464H398.822L317.47 193.72L206.164 241.957C205.73 242.142 205.263 242.239 204.791 242.242C204.319 242.244 203.851 242.152 203.415 241.971L88.5799 193.619L5.22967 158.522L5.10234 158.464H4.96047C3.64532 158.465 2.38445 158.996 1.4545 159.94C0.524543 160.884 0.00145927 162.164 0 163.498V382.137C0.00146114 383.472 0.524544 384.752 1.4545 385.696C2.38445 386.639 3.64532 387.17 4.96047 387.172H398.964C400.279 387.17 401.54 386.639 402.47 385.696C403.4 384.752 403.923 383.472 403.924 382.137V163.498C403.923 162.164 403.4 160.884 402.47 159.94C401.54 158.996 400.279 158.465 398.964 158.464V158.464Z" fill="white"/>
<path d="M400.381 159.902C400.236 159.902 400.095 159.858 399.976 159.774L203.996 21.2518C203.399 20.8322 202.69 20.6079 201.965 20.6092C201.239 20.6105 200.531 20.8371 199.936 21.2588L5.36749 159.772C5.29129 159.826 5.2053 159.865 5.11444 159.885C5.02359 159.906 4.92963 159.908 4.83795 159.892C4.74628 159.875 4.65867 159.841 4.58013 159.79C4.50159 159.74 4.43367 159.674 4.38022 159.596C4.32677 159.519 4.28885 159.432 4.26863 159.339C4.24841 159.247 4.24629 159.152 4.26238 159.059C4.27847 158.966 4.31245 158.877 4.3624 158.797C4.41235 158.717 4.47729 158.649 4.55349 158.594L199.122 20.0809C199.955 19.4907 200.947 19.1735 201.963 19.1718C202.979 19.1701 203.971 19.484 204.806 20.0715L400.786 158.593C400.91 158.68 401.003 158.806 401.052 158.951C401.1 159.096 401.102 159.253 401.057 159.399C401.012 159.545 400.922 159.672 400.8 159.763C400.678 159.854 400.531 159.902 400.38 159.902L400.381 159.902Z" fill="#3F3D56"/>
<path d="M16.4861 164.813L202.157 25.1548L389.238 174.75L211.724 281.552L115.349 259.257L16.4861 164.813Z" fill="#E6E6E6"/>
<path d="M123.484 347.519H31.758C31.1947 347.52 30.6369 347.408 30.1163 347.19C29.5957 346.971 29.1227 346.651 28.7242 346.247C28.3256 345.843 28.0095 345.364 27.7938 344.836C27.5781 344.308 27.467 343.741 27.467 343.17C27.467 342.598 27.5781 342.032 27.7938 341.504C28.0095 340.976 28.3256 340.496 28.7242 340.092C29.1227 339.689 29.5957 339.368 30.1163 339.15C30.6369 338.932 31.1947 338.82 31.758 338.821H123.484C124.048 338.82 124.605 338.932 125.126 339.15C125.647 339.368 126.12 339.689 126.518 340.092C126.917 340.496 127.233 340.976 127.449 341.504C127.664 342.032 127.775 342.598 127.775 343.17C127.775 343.741 127.664 344.308 127.449 344.836C127.233 345.364 126.917 345.843 126.518 346.247C126.12 346.651 125.647 346.971 125.126 347.19C124.605 347.408 124.048 347.52 123.484 347.519V347.519Z" fill="#FA5252"/>
<path d="M505.608 362.448C506.834 361.623 507.869 360.53 508.642 359.247C509.414 357.963 509.905 356.52 510.079 355.019C510.254 353.519 510.107 351.997 509.651 350.561C509.195 349.125 508.439 347.809 507.437 346.708L513 278.172L497.067 279.982L492.702 346.687C491.023 348.549 490.062 350.982 490.003 353.526C489.944 356.07 490.789 358.548 492.38 360.491C493.971 362.434 496.196 363.706 498.634 364.067C501.072 364.428 503.553 363.852 505.608 362.448V362.448Z" fill="#FFB8B8"/>
<path d="M450.998 524.172L440.157 524.171L435 478.172L451 478.173L450.998 524.172Z" fill="#FFB8B8"/>
<path d="M432.523 521.172H454V535.172H419C419 533.333 419.35 531.513 420.029 529.814C420.709 528.116 421.705 526.572 422.961 525.272C424.216 523.972 425.707 522.941 427.348 522.237C428.988 521.534 430.747 521.172 432.523 521.172Z" fill="#2F2E41"/>
<path d="M528.998 524.172L518.157 524.171L513 478.172L529 478.173L528.998 524.172Z" fill="#FFB8B8"/>
<path d="M510.523 521.172H532V535.172H497C497 531.459 498.425 527.898 500.961 525.272C503.497 522.647 506.936 521.172 510.523 521.172V521.172Z" fill="#2F2E41"/>
<path d="M451.063 496.172C450.943 496.172 450.824 496.166 450.703 496.156L435.13 494.837C434.512 494.785 433.911 494.598 433.365 494.288C432.819 493.978 432.34 493.552 431.957 493.036C431.575 492.52 431.297 491.926 431.142 491.291C430.987 490.656 430.959 489.995 431.058 489.347L454.669 334.847L456.25 313.055C456.32 312.036 456.701 311.069 457.334 310.298C457.968 309.528 458.821 308.995 459.765 308.781L483.514 303.285C484.387 303.079 485.299 303.155 486.13 303.504C486.962 303.853 487.675 304.458 488.177 305.242L493.968 314.196C496.241 317.677 498.713 321.009 501.367 324.174C505.476 329.125 512.462 340.116 513.088 358.104C513.256 364.014 513.837 369.902 514.824 375.721L533.943 484.685C534.04 485.324 534.013 485.977 533.862 486.604C533.712 487.231 533.441 487.819 533.068 488.332C532.695 488.844 532.227 489.271 531.692 489.585C531.158 489.899 530.568 490.094 529.959 490.159L515.197 491.342C514.141 491.452 513.082 491.161 512.21 490.521C511.338 489.881 510.71 488.933 510.438 487.848L484.253 384.827C484.201 384.625 484.088 384.447 483.932 384.32C483.775 384.193 483.582 384.124 483.385 384.124C483.187 384.125 482.995 384.194 482.839 384.322C482.682 384.449 482.57 384.628 482.519 384.83L455.397 492.645C455.142 493.656 454.579 494.549 453.796 495.187C453.012 495.824 452.051 496.17 451.063 496.172Z" fill="#2F2E41"/>
<path d="M493 233.172C505.15 233.172 515 222.65 515 209.672C515 196.693 505.15 186.172 493 186.172C480.85 186.172 471 196.693 471 209.672C471 222.65 480.85 233.172 493 233.172Z" fill="#FFB8B8"/>
<path d="M455.666 316.172L455.207 282.712C453.519 261.312 462.485 250.076 470.304 244.424C472.321 242.985 474.593 241.994 476.982 241.511C479.372 241.027 481.83 241.061 484.206 241.611L501.652 245.598C504.081 246.157 506.378 247.232 508.403 248.756C510.428 250.28 512.14 252.223 513.434 254.467C514.673 256.583 515.486 258.947 515.823 261.41C516.16 263.873 516.015 266.383 515.395 268.784C514.183 273.278 511.495 277.168 507.814 279.756C492.824 290.941 491.768 309.729 491.759 309.918L491.741 310.306L455.666 316.172Z" fill="#FA5252"/>
<path d="M509.846 291.172H494.154C493.053 291.17 491.997 290.716 491.218 289.908C490.439 289.101 490.001 288.006 490 286.863V258.619C490 255.317 491.264 252.152 493.515 249.817C495.765 247.483 498.817 246.172 502 246.172C505.183 246.172 508.235 247.483 510.485 249.817C512.736 252.152 514 255.317 514 258.619V286.863C513.999 288.006 513.561 289.101 512.782 289.908C512.003 290.716 510.947 291.17 509.846 291.172V291.172Z" fill="#FA5252"/>
<path d="M407.265 296.65C406.38 297.795 405.28 298.723 404.039 299.375C402.798 300.026 401.443 300.385 400.065 300.428C398.686 300.471 397.315 300.198 396.041 299.625C394.767 299.053 393.62 298.194 392.675 297.107C384.108 287.377 398.112 272.767 406.712 282.518C407.015 282.854 407.297 283.212 407.554 283.59L450.917 282.423L456.093 272.172L472 278.86C468.946 283.989 465.44 304.117 457.453 303.137C456.405 303.168 408.336 296.732 407.265 296.65Z" fill="#FFB8B8"/>
<path d="M465.755 289.326L453.625 279.553C452.774 278.866 452.206 277.836 452.046 276.69C451.886 275.545 452.146 274.376 452.77 273.44L468.218 250.33C469.112 248.993 470.237 247.862 471.529 247.002C472.821 246.142 474.255 245.57 475.748 245.318C477.242 245.066 478.766 245.14 480.234 245.535C481.701 245.93 483.083 246.638 484.302 247.62C485.52 248.601 486.55 249.837 487.333 251.255C488.116 252.674 488.638 254.248 488.867 255.888C489.096 257.527 489.029 259.201 488.669 260.812C488.309 262.423 487.664 263.941 486.77 265.278L471.322 288.388C470.697 289.322 469.759 289.945 468.715 290.121C467.672 290.297 466.607 290.011 465.755 289.326V289.326Z" fill="#FA5252"/>
<path d="M497.169 221.695C497.879 220.116 498.126 218.345 497.876 216.614C497.627 214.883 496.893 213.273 495.77 211.994C491.627 207.545 485.154 210.512 479.554 210.077C470.228 209.351 463.876 197.507 466.66 187.999C469.444 178.491 479.341 172.591 488.674 173.217C498.007 173.843 506.457 179.991 512.082 187.947C515.932 181.348 525.391 180.578 531.496 184.832C537.601 189.086 540.759 196.861 542.065 204.505C543.37 212.149 543.157 220.005 544.256 227.686C546.921 246.305 558.204 263.837 574.531 271.074C590.858 278.312 611.75 273.66 622.431 258.65C624.508 276.84 620.864 295.251 612.071 311.001C603.277 326.751 589.829 338.953 573.83 345.697C564.983 349.426 555.212 351.406 545.898 349.333C530.862 345.987 519.165 332.291 514.068 316.858C508.971 301.425 509.581 284.49 512.057 268.344C513.581 258.399 515.27 246.621 508.46 239.626C506.548 237.932 504.298 236.724 501.882 236.094C500.601 235.685 499.425 234.969 498.443 234.001C497.461 233.034 496.699 231.84 496.216 230.512C495.732 229.184 495.54 227.755 495.654 226.336C495.767 224.916 496.184 223.543 496.871 222.321C496.981 222.113 497.081 221.904 497.169 221.695Z" fill="#2F2E41"/>
<path d="M576.104 535.172H371.896C371.658 535.172 371.43 535.066 371.262 534.879C371.094 534.691 371 534.437 371 534.172C371 533.907 371.094 533.652 371.262 533.465C371.43 533.277 371.658 533.172 371.896 533.172H576.104C576.342 533.172 576.57 533.277 576.738 533.465C576.906 533.652 577 533.907 577 534.172C577 534.437 576.906 534.691 576.738 534.879C576.57 535.066 576.342 535.172 576.104 535.172Z" fill="#3F3D56"/>
<path d="M64.6674 328.82H31.758C31.1947 328.821 30.6369 328.709 30.1163 328.49C29.5957 328.272 29.1227 327.952 28.7242 327.548C28.3256 327.144 28.0095 326.664 27.7938 326.136C27.5781 325.608 27.467 325.042 27.467 324.471C27.467 323.899 27.5781 323.333 27.7938 322.805C28.0095 322.277 28.3256 321.797 28.7242 321.393C29.1227 320.989 29.5957 320.669 30.1163 320.451C30.6369 320.232 31.1947 320.12 31.758 320.121H64.6674C65.2306 320.12 65.7884 320.232 66.309 320.451C66.8296 320.669 67.3026 320.989 67.7012 321.393C68.0997 321.797 68.4158 322.277 68.6316 322.805C68.8473 323.333 68.9583 323.899 68.9583 324.471C68.9583 325.042 68.8473 325.608 68.6316 326.136C68.4158 326.664 68.0997 327.144 67.7012 327.548C67.3026 327.952 66.8296 328.272 66.309 328.49C65.7884 328.709 65.2306 328.821 64.6674 328.82Z" fill="#FA5252"/>
<path d="M204.769 242.6C204.071 242.601 203.381 242.464 202.735 242.196L88.2258 193.974V43.0312C88.2274 41.6964 88.7505 40.4168 89.6804 39.473C90.6104 38.5292 91.8712 37.9983 93.1863 37.9967H312.864C314.18 37.9983 315.44 38.5292 316.37 39.473C317.3 40.4168 317.823 41.6964 317.825 43.0312V194.079L317.61 194.173L206.863 242.172C206.2 242.455 205.488 242.601 204.769 242.6V242.6Z" fill="white"/>
<path d="M204.769 242.959C204.025 242.96 203.289 242.814 202.601 242.529L87.8716 194.214V43.0311C87.8732 41.601 88.4337 40.23 89.43 39.2188C90.4264 38.2075 91.7773 37.6387 93.1864 37.6371H312.864C314.274 37.6387 315.624 38.2075 316.621 39.2188C317.617 40.23 318.178 41.601 318.179 43.0311V194.317L207.003 242.503C206.295 242.805 205.536 242.96 204.769 242.959V242.959ZM89.2889 193.253L203.141 241.199C204.203 241.636 205.392 241.629 206.449 241.179L316.762 193.367V43.0311C316.761 41.9824 316.35 40.977 315.619 40.2355C314.888 39.4939 313.898 39.0767 312.864 39.0755H93.1864C92.1531 39.0767 91.1625 39.4939 90.4318 40.2355C89.7011 40.977 89.2901 41.9824 89.2889 43.0311V193.253Z" fill="#3F3D56"/>
<path d="M398.964 158.464H398.822L317.47 193.72L206.164 241.957C205.73 242.142 205.263 242.239 204.791 242.242C204.319 242.244 203.851 242.152 203.415 241.971L88.5799 193.619L5.22967 158.522L5.10234 158.464H4.96047C3.64532 158.465 2.38445 158.996 1.4545 159.94C0.524543 160.884 0.00145927 162.164 0 163.498V382.137C0.00146114 383.472 0.524544 384.752 1.4545 385.696C2.38445 386.639 3.64532 387.17 4.96047 387.172H398.964C400.279 387.17 401.54 386.639 402.47 385.696C403.4 384.752 403.923 383.472 403.924 382.137V163.498C403.923 162.164 403.4 160.884 402.47 159.94C401.54 158.996 400.279 158.465 398.964 158.464V158.464ZM402.507 382.137C402.507 383.091 402.133 384.005 401.469 384.68C400.804 385.354 399.903 385.733 398.964 385.733H4.96047C4.02087 385.733 3.11987 385.354 2.45547 384.68C1.79108 384.005 1.41765 383.091 1.41728 382.137V163.498C1.41856 162.569 1.77398 161.675 2.40922 161.005C3.04445 160.335 3.91034 159.94 4.82587 159.902L88.5799 195.172L202.869 243.302C204.107 243.813 205.493 243.805 206.724 243.28L317.47 195.28L399.106 159.902C400.02 159.942 400.883 160.339 401.517 161.008C402.15 161.678 402.505 162.57 402.507 163.498V382.137Z" fill="#3F3D56"/>
<path d="M186.941 94.4197H108.991C107.488 94.4197 106.046 93.8135 104.982 92.7345C103.919 91.6554 103.322 90.192 103.322 88.666C103.322 87.14 103.919 85.6766 104.982 84.5976C106.046 83.5185 107.488 82.9124 108.991 82.9124H186.941C188.445 82.9124 189.887 83.5185 190.95 84.5976C192.013 85.6766 192.611 87.14 192.611 88.666C192.611 90.192 192.013 91.6554 190.95 92.7345C189.887 93.8135 188.445 94.4197 186.941 94.4197Z" fill="#FA5252"/>
<path d="M146.549 69.9667H108.991C107.488 69.9667 106.046 69.3605 104.982 68.2815C103.919 67.2024 103.322 65.739 103.322 64.213C103.322 62.687 103.919 61.2236 104.982 60.1446C106.046 59.0655 107.488 58.4594 108.991 58.4594H146.549C148.053 58.4594 149.495 59.0655 150.558 60.1446C151.621 61.2236 152.218 62.687 152.218 64.213C152.218 65.739 151.621 67.2024 150.558 68.2815C149.495 69.3605 148.053 69.9667 146.549 69.9667Z" fill="#FA5252"/>
<path d="M261.326 151.956H142.275C140.771 151.956 139.329 151.35 138.266 150.271C137.203 149.192 136.606 147.728 136.606 146.203C136.606 144.677 137.203 143.213 138.266 142.134C139.329 141.055 140.771 140.449 142.275 140.449H261.326C262.83 140.449 264.272 141.055 265.335 142.134C266.398 143.213 266.995 144.677 266.995 146.203C266.995 147.728 266.398 149.192 265.335 150.271C264.272 151.35 262.83 151.956 261.326 151.956Z" fill="#CCCCCC"/>
<path d="M261.326 178.567H142.275C140.771 178.567 139.329 177.961 138.266 176.882C137.203 175.803 136.606 174.339 136.606 172.813C136.606 171.287 137.203 169.824 138.266 168.745C139.329 167.666 140.771 167.06 142.275 167.06H261.326C262.83 167.06 264.272 167.666 265.335 168.745C266.398 169.824 266.995 171.287 266.995 172.813C266.995 174.339 266.398 175.803 265.335 176.882C264.272 177.961 262.83 178.567 261.326 178.567Z" fill="#CCCCCC"/>
</svg>
